<svg width="24" height="24" viewBox="0 0 24 24" fill="none" xmlns="http://www.w3.org/2000/svg">
<path d="M15 22.75H9C3.57 22.75 1.25 20.43 1.25 15V9C1.25 3.57 3.57 1.25 9 1.25H11C11.41 1.25 11.75 1.59 11.75 2C11.75 2.41 11.41 2.75 11 2.75H9C4.39 2.75 2.75 4.39 2.75 9V15C2.75 19.61 4.39 21.25 9 21.25H15C19.61 21.25 21.25 19.61 21.25 15V13C21.25 12.59 21.59 12.25 22 12.25C22.41 12.25 22.75 12.59 22.75 13V15C22.75 20.43 20.43 22.75 15 22.75Z" fill="#02F655"/>
<path d="M8.5 17.6896C7.89 17.6896 7.33 17.4696 6.92 17.0696C6.43 16.5796 6.22 15.8696 6.33 15.1196L6.76 12.1096C6.84 11.5296 7.22 10.7796 7.63 10.3696L15.51 2.48957C17.5 0.49957 19.52 0.49957 21.51 2.48957C22.6 3.57957 23.09 4.68957 22.99 5.79957C22.9 6.69957 22.42 7.57957 21.51 8.47957L13.63 16.3596C13.22 16.7696 12.47 17.1496 11.89 17.2296L8.88 17.6596C8.75 17.6896 8.62 17.6896 8.5 17.6896ZM16.57 3.54957L8.69 11.4296C8.5 11.6196 8.28 12.0596 8.24 12.3196L7.81 15.3296C7.77 15.6196 7.83 15.8596 7.98 16.0096C8.13 16.1596 8.37 16.2196 8.66 16.1796L11.67 15.7496C11.93 15.7096 12.38 15.4896 12.56 15.2996L20.44 7.41957C21.09 6.76957 21.43 6.18957 21.48 5.64957C21.54 4.99957 21.2 4.30957 20.44 3.53957C18.84 1.93957 17.74 2.38957 16.57 3.54957Z" fill="#02F655"/>
<path d="M19.85 9.83027C19.78 9.83027 19.71 9.82027 19.65 9.80027C17.02 9.06027 14.93 6.97027 14.19 4.34027C14.08 3.94027 14.31 3.53027 14.71 3.41027C15.11 3.30027 15.52 3.53027 15.63 3.93027C16.23 6.06027 17.92 7.75027 20.05 8.35027C20.45 8.46027 20.68 8.88027 20.57 9.28027C20.48 9.62027 20.18 9.83027 19.85 9.83027Z" fill="#02F655"/>
</svg>
