<svg width="36" height="37" viewBox="0 0 36 37" fill="none" xmlns="http://www.w3.org/2000/svg">
<path opacity="0.25" d="M35 18.5C35 28.191 27.3632 36 18 36C8.63681 36 1 28.191 1 18.5C1 8.80901 8.63681 1 18 1C27.3632 1 35 8.80901 35 18.5Z" stroke="white" stroke-width="2"/>
<path d="M16.5591 24.1678L16.5428 18.9903H14.3999V16.7713H16.5428V15.2921C16.5428 13.2956 17.7367 12.3335 19.4566 12.3335C20.2805 12.3335 20.9885 12.397 21.1949 12.4254V14.5118L20.002 14.5124C19.0666 14.5124 18.8855 14.9726 18.8855 15.648V16.7713H21.5428L20.8285 18.9903H18.8855V24.1678H16.5591Z" fill="white"/>
</svg>
