<svg width="41" height="34" viewBox="0 0 41 34" fill="none" xmlns="http://www.w3.org/2000/svg">
<g clip-path="url(#clip0_26_295)">
<path d="M7.81198 0.500003H7.8124L33.4465 0.500003L33.4469 0.500003C34.3128 0.499286 35.1692 0.648658 35.9665 0.938434C36.7638 1.2282 37.4844 1.65191 38.0885 2.1826C38.6924 2.71318 39.1673 3.33964 39.4896 4.02415C39.8117 4.70839 39.976 5.43895 39.9752 6.17468V6.17522V27.8248V27.8253C39.976 28.561 39.8117 29.2916 39.4896 29.9758C39.1673 30.6604 38.6924 31.2868 38.0885 31.8174C37.4844 32.3481 36.7638 32.7718 35.9665 33.0616C35.1692 33.3513 34.3128 33.5007 33.4469 33.5H33.4465H7.8124H7.81198C6.94608 33.5007 6.08972 33.3513 5.29239 33.0616C4.49507 32.7718 3.77446 32.3481 3.17042 31.8174C2.56651 31.2868 2.09161 30.6604 1.76932 29.9758C1.44715 29.2916 1.2829 28.561 1.28369 27.8253V27.8248L1.28369 6.17522L1.28369 6.17468C1.2829 5.43895 1.44715 4.70839 1.76932 4.02415C2.09161 3.33964 2.56651 2.71318 3.17042 2.1826C3.77446 1.65191 4.49507 1.2282 5.29239 0.938433C6.08972 0.648658 6.94608 0.499286 7.81198 0.500003Z" fill="#000B1D" stroke="#051937"/>
<path d="M16.8257 27.37C19.1091 27.37 20.9602 25.7843 20.9602 23.8283V20.2866H16.8257C14.5423 20.2866 12.6912 21.8723 12.6912 23.8283C12.6912 25.7843 14.5423 27.37 16.8257 27.37Z" fill="#0ACF83"/>
<path d="M12.6912 16.745C12.6912 14.789 14.5423 13.2034 16.8257 13.2034H20.9602V20.2867H16.8257C14.5423 20.2867 12.6912 18.701 12.6912 16.745Z" fill="#A259FF"/>
<path d="M12.6912 9.66166C12.6912 7.70565 14.5423 6.12 16.8257 6.12H20.9602V13.2033H16.8257C14.5423 13.2033 12.6912 11.6177 12.6912 9.66166Z" fill="#F24E1E"/>
<path d="M20.9602 6.12H25.0947C27.3782 6.12 29.2293 7.70565 29.2293 9.66166C29.2293 11.6177 27.3782 13.2033 25.0947 13.2033H20.9602V6.12Z" fill="#FF7262"/>
<path d="M29.2293 16.745C29.2293 18.701 27.3782 20.2867 25.0947 20.2867C22.8113 20.2867 20.9602 18.701 20.9602 16.745C20.9602 14.789 22.8113 13.2034 25.0947 13.2034C27.3782 13.2034 29.2293 14.789 29.2293 16.745Z" fill="#1ABCFE"/>
</g>
<defs>
<clipPath id="clip0_26_295">
<rect width="39.6915" height="34" fill="white" transform="translate(0.783691)"/>
</clipPath>
</defs>
</svg>
