<svg width="38" height="33" viewBox="0 0 38 33" fill="none" xmlns="http://www.w3.org/2000/svg">
<path d="M37.5709 27.0064V5.99359C37.5717 5.20629 37.4044 4.42658 37.0787 3.69907C36.7529 2.97156 36.275 2.31053 35.6724 1.75383C35.0698 1.19713 34.3542 0.755669 33.5667 0.454726C32.7792 0.153783 31.9351 -0.000739374 31.0829 2.65985e-06L37.5709 27.0064ZM37.5709 27.0064C37.5717 27.7937 37.4044 28.5734 37.0787 29.3009C36.7529 30.0284 36.275 30.6895 35.6724 31.2462C35.0698 31.8029 34.3542 32.2443 33.5667 32.5453C32.7792 32.8462 31.9351 33.0007 31.0829 33H7.42065M37.5709 27.0064L7.42065 33M7.42065 33C6.5684 33.0007 5.72437 32.8462 4.93684 32.5453C4.14931 32.2443 3.43376 31.8029 2.83113 31.2462C2.2285 30.6895 1.75063 30.0284 1.42486 29.3009C1.09909 28.5734 0.931817 27.7937 0.93262 27.0064M7.42065 33L0.93262 27.0064M0.93262 27.0064V5.99359V27.0064ZM7.42022 0.500003H7.42065L31.0829 0.500003L31.0833 0.500002C31.8751 0.499313 32.6584 0.642913 33.3882 0.921786C34.1179 1.20065 34.7785 1.60879 35.3331 2.1211C35.8876 2.63333 36.325 3.23938 36.6223 3.90341C36.9196 4.56731 37.0716 5.27729 37.0709 5.99308V5.99359V27.0064V27.0069C37.0716 27.7227 36.9196 28.4327 36.6223 29.0966C36.325 29.7606 35.8876 30.3667 35.3331 30.8789C34.7785 31.3912 34.1179 31.7994 33.3882 32.0782C32.6584 32.3571 31.8751 32.5007 31.0833 32.5H31.0829H7.42065H7.42021C6.62844 32.5007 5.84509 32.3571 5.11532 32.0782C4.38558 31.7994 3.72498 31.3912 3.17041 30.8789C2.61592 30.3667 2.17854 29.7606 1.88119 29.0966C1.58391 28.4327 1.43189 27.7227 1.43262 27.0069V27.0064L1.43262 5.99359L1.43262 5.99308C1.43189 5.27729 1.58391 4.56731 1.88119 3.90341C2.17854 3.23938 2.61592 2.63333 3.17041 2.1211C3.72498 1.60879 4.38558 1.20065 5.11532 0.921786C5.84509 0.642913 6.62844 0.499313 7.42022 0.500003Z" fill="#020917" stroke="#051937"/>
<path d="M32.4731 15.3976L20.4749 4.59179C19.7845 3.9694 18.664 3.9694 17.9727 4.59179L15.4815 6.83599L18.6416 9.68242C19.3762 9.459 20.2183 9.6088 20.8036 10.1361C21.392 10.6667 21.5571 11.4317 21.3028 12.0956L24.3486 14.8391C25.0855 14.6104 25.9357 14.7581 26.5241 15.2891C27.3467 16.0298 27.3467 17.2301 26.5241 17.971C25.7014 18.7122 24.3688 18.7122 23.5456 17.971C22.927 17.4134 22.7741 16.5948 23.0873 15.9084L20.2468 13.3498L20.2466 20.0827C20.4471 20.1721 20.6364 20.2914 20.8035 20.4413C21.6259 21.182 21.6259 22.3821 20.8035 23.1239C19.9809 23.8646 18.6477 23.8646 17.826 23.1239C17.0035 22.3821 17.0035 21.182 17.826 20.4413C18.0292 20.2586 18.2644 20.1202 18.5154 20.0275V13.2321C18.2643 13.1398 18.0294 13.0025 17.8258 12.8182C17.2028 12.2575 17.0528 11.4339 17.3723 10.7448L14.257 7.93835L6.03084 15.3477C5.33965 15.9706 5.33965 16.9799 6.03084 17.6023L18.0283 28.4082C18.719 29.0306 19.8393 29.0306 20.5309 28.4082L32.4729 17.6534C33.1639 17.0307 33.1639 16.0211 32.4729 15.3985" fill="#F05133"/>
</svg>
