<svg width="45" height="45" viewBox="0 0 45 45" fill="none" xmlns="http://www.w3.org/2000/svg">
<g clip-path="url(#clip0_26_272)">
<path d="M44.4362 36.8269V8.17308C44.4372 7.09949 44.2374 6.03624 43.8483 5.04418C43.4592 4.05212 42.8884 3.15073 42.1686 2.39159C41.4488 1.63244 40.5941 1.03046 39.6534 0.620081C38.7128 0.209704 37.7046 -0.00100824 36.6866 3.62707e-06L44.4362 36.8269ZM44.4362 36.8269C44.4372 37.9005 44.2374 38.9638 43.8483 39.9558C43.4592 40.9479 42.8884 41.8493 42.1686 42.6084C41.4488 43.3676 40.5941 43.9695 39.6534 44.3799C38.7128 44.7903 37.7046 45.001 36.6866 45H8.42342M44.4362 36.8269L8.42342 45M8.42342 45C7.40546 45.001 6.39731 44.7903 5.45665 44.3799M8.42342 45L5.45665 44.3799M5.45665 44.3799C4.51599 43.9695 3.6613 43.3676 2.94149 42.6084M5.45665 44.3799L2.94149 42.6084M2.94149 42.6084C2.22169 41.8493 1.65089 40.9479 1.26178 39.9558M2.94149 42.6084L1.26178 39.9558M1.26178 39.9558C0.872666 38.9638 0.672872 37.9005 0.673832 36.8269L1.26178 39.9558ZM8.42293 0.500004H8.42342L36.6866 0.500004L36.6871 0.500003C37.6355 0.499061 38.5755 0.695338 39.4535 1.07837C40.3315 1.46143 41.1311 2.02412 41.8057 2.73561C42.4804 3.44716 43.0168 4.29348 43.3828 5.22675C43.7489 6.16007 43.9371 7.1612 43.9362 8.17263V8.17308V36.8269V36.8274C43.9371 37.8388 43.7489 38.8399 43.3828 39.7732C43.0168 40.7065 42.4804 41.5528 41.8057 42.2644C41.1311 42.9759 40.3315 43.5386 39.4535 43.9216C38.5755 44.3047 37.6355 44.5009 36.6871 44.5H36.6866H8.42342H8.42293C7.47452 44.5009 6.53455 44.3047 5.65658 43.9216C4.77854 43.5386 3.97895 42.9759 3.30432 42.2644C2.62964 41.5528 2.09331 40.7065 1.72726 39.7732C1.36119 38.8399 1.17293 37.8388 1.17383 36.8274V36.8269L1.17383 8.17308L1.17383 8.17263C1.17293 7.1612 1.36119 6.16006 1.72726 5.22675C2.09331 4.29348 2.62964 3.44716 3.30432 2.73561C3.97895 2.02412 4.77854 1.46143 5.65658 1.07837C6.53455 0.695338 7.47452 0.499061 8.42293 0.500004Z" stroke="#051937"/>
<path d="M34.6076 11.8257L32.4116 37.1224L22.5404 39.9363L12.6964 37.1263L10.5027 11.8257H34.6076Z" fill="#E44D26"/>
<path d="M22.5552 37.7854L30.5316 35.5115L32.4081 13.8943H22.5552V37.7854Z" fill="#F16529"/>
<path d="M18.2862 20.1005H22.5552V16.9974H14.9883L15.0605 17.8299L15.8022 26.381H22.5552V23.278H18.562L18.2862 20.1005ZM18.9663 27.9326H15.937L16.3598 32.8048L22.5413 34.5692L22.5552 34.5653V31.3369L22.542 31.3405L19.1812 30.4073L18.9663 27.9326Z" fill="#EBEBEB"/>
<path d="M12.7454 4.95001H14.2789V6.50798H15.6818V4.95001H17.2154V9.66793H15.6819V8.0881H14.279V9.66793H12.7455V4.95001H12.7454ZM19.232 6.51459H17.8821V4.95001H22.1165V6.51459H20.7658V9.66793H19.2323V6.51459H19.2322H19.232ZM22.7885 4.95001H24.3876L25.3712 6.60776L26.3539 4.95001H27.9535V9.66793H26.4262V7.32947L25.3712 9.00695H25.3447L24.289 7.32947V9.66793H22.7885V4.95001ZM28.7167 4.95001H30.2507V8.1085H32.4073V9.66793H28.7166V4.95001H28.7167Z" fill="black"/>
<path d="M22.5448 26.381H26.2607L25.9104 30.4054L22.5447 31.3395V34.5677L28.7311 32.8048L28.7765 32.2805L29.4857 24.1112L29.5593 23.278H22.5448V26.381ZM22.5448 20.0929V20.1005H29.8339L29.8944 19.403L30.0319 17.8299L30.104 16.9974H22.5448V20.093V20.0929Z" fill="white"/>
</g>
<defs>
<clipPath id="clip0_26_272">
<rect width="43.7624" height="45" fill="white" transform="translate(0.673828)"/>
</clipPath>
</defs>
</svg>
