<svg width="36" height="37" viewBox="0 0 36 37" fill="none" xmlns="http://www.w3.org/2000/svg">
<path opacity="0.25" d="M35 18.5C35 28.191 27.3632 36 18 36C8.63681 36 1 28.191 1 18.5C1 8.80901 8.63681 1 18 1C27.3632 1 35 8.80901 35 18.5Z" stroke="white" stroke-width="2"/>
<path d="M20.6943 16.3969C21.0389 16.3969 21.3183 16.1098 21.3183 15.7556C21.3183 15.4014 21.0389 15.1143 20.6943 15.1143C20.3497 15.1143 20.0703 15.4014 20.0703 15.7556C20.0703 16.1098 20.3497 16.3969 20.6943 16.3969Z" fill="white"/>
<path fill-rule="evenodd" clip-rule="evenodd" d="M15.3999 18.4999C15.3999 19.9736 16.566 21.1721 17.9999 21.1721C19.4338 21.1721 20.5999 19.9736 20.5999 18.4999C20.5999 17.0261 19.4338 15.8276 17.9999 15.8276C16.566 15.8276 15.3999 17.0261 15.3999 18.4999ZM16.7 18.5C16.7 17.7631 17.2831 17.1639 18 17.1639C18.7169 17.1639 19.3 17.7631 19.3 18.5C19.3 19.2369 18.7169 19.8361 18 19.8361C17.2831 19.8361 16.7 19.2369 16.7 18.5Z" fill="white"/>
<path fill-rule="evenodd" clip-rule="evenodd" d="M15.4 23.8447H20.6C21.9364 23.8447 23.2 22.5459 23.2 21.1724V15.828C23.2 14.4545 21.9364 13.1558 20.6 13.1558H15.4C14.0636 13.1558 12.8 14.4545 12.8 15.828V21.1724C12.8 22.5459 14.0636 23.8447 15.4 23.8447ZM14.1 15.8278C14.1 15.2031 14.7923 14.4917 15.4 14.4917H20.6C21.2078 14.4917 21.9 15.2031 21.9 15.8278V21.1722C21.9 21.7969 21.2078 22.5083 20.6 22.5083H15.4C14.7806 22.5083 14.1 21.8089 14.1 21.1722V15.8278Z" fill="white"/>
</svg>
