<svg width="45" height="42" viewBox="0 0 45 42" fill="none" xmlns="http://www.w3.org/2000/svg">
<g clip-path="url(#clip0_26_252)">
<path d="M8.42342 3.38526e-06H36.6866C37.7046 -0.000941022 38.7128 0.195724 39.6534 0.578742C40.5941 0.961761 41.4488 1.52361 42.1686 2.23215C42.8884 2.94068 43.4592 3.78198 43.8483 4.7079C44.2374 5.63383 44.4372 6.62619 44.4362 7.62821V34.3718C44.4372 35.3738 44.2374 36.3662 43.8483 37.2921C43.4592 38.218 42.8884 39.0593 42.1686 39.7679C41.4488 40.4764 40.5941 41.0382 39.6534 41.4213C38.7128 41.8043 37.7046 42.0009 36.6866 42H8.42342C7.40546 42.0009 6.39731 41.8043 5.45665 41.4213C4.51599 41.0382 3.6613 40.4764 2.94149 39.7679C2.22169 39.0593 1.65089 38.218 1.26178 37.2921C0.872666 36.3662 0.672872 35.3738 0.673832 34.3718V7.62821C0.672872 6.62619 0.872666 5.63383 1.26178 4.7079C1.65089 3.78198 2.22169 2.94068 2.94149 2.23215C3.6613 1.52361 4.51599 0.961761 5.45665 0.578742C6.39731 0.195724 7.40546 -0.000941022 8.42342 3.38526e-06Z" fill="#F7DF1E"/>
<path d="M30.1453 32.8633C31.0268 34.2446 32.1736 35.26 34.202 35.26C35.9059 35.26 36.9944 34.4427 36.9944 33.3133C36.9944 31.96 35.8761 31.4807 34.0005 30.6933L32.9725 30.27C30.0049 29.0567 28.0336 27.5367 28.0336 24.3233C28.0336 21.3633 30.3835 19.11 34.0561 19.11C36.6707 19.11 38.5504 19.9833 39.905 22.27L36.7027 24.2433C35.9976 23.03 35.237 22.552 34.0561 22.552C32.8516 22.552 32.0882 23.2853 32.0882 24.2433C32.0882 25.4273 32.8523 25.9067 34.6167 26.64L35.6447 27.0627C39.1388 28.5007 41.1116 29.9667 41.1116 33.2626C41.1116 36.816 38.2031 38.7626 34.2971 38.7626C30.478 38.7626 28.0106 37.016 26.8033 34.7267L30.1453 32.8633ZM15.6182 33.2053C16.2642 34.3053 16.8519 35.2353 18.2648 35.2353C19.6159 35.2353 20.4682 34.728 20.4682 32.7553V19.3353H24.5805V32.8087C24.5805 36.8953 22.084 38.7553 18.4399 38.7553C15.1473 38.7553 13.2405 37.12 12.2708 35.1503L15.6182 33.2053Z" fill="black"/>
</g>
<defs>
<clipPath id="clip0_26_252">
<rect x="0.673828" width="43.7624" height="42" fill="white"/>
</clipPath>
</defs>
</svg>
