<svg width="36" height="37" viewBox="0 0 36 37" fill="none" xmlns="http://www.w3.org/2000/svg">
<path opacity="0.25" d="M34.875 18.5C34.875 28.1252 27.2909 35.875 18 35.875C8.70905 35.875 1.125 28.1252 1.125 18.5C1.125 8.8748 8.70905 1.125 18 1.125C27.2909 1.125 34.875 8.8748 34.875 18.5Z" stroke="white" stroke-width="2.25"/>
<path d="M14.15 15.9308C14.8956 15.9308 15.5 15.3096 15.5 14.5433C15.5 13.777 14.8956 13.1558 14.15 13.1558C13.4045 13.1558 12.8 13.777 12.8 14.5433C12.8 15.3096 13.4045 15.9308 14.15 15.9308Z" fill="white"/>
<path d="M15.275 16.8555H13.025C12.9008 16.8555 12.8 16.9591 12.8 17.0867V24.0242C12.8 24.1519 12.9008 24.2555 13.025 24.2555H15.275C15.3992 24.2555 15.5 24.1519 15.5 24.0242V17.0867C15.5 16.9591 15.3992 16.8555 15.275 16.8555Z" fill="white"/>
<path d="M21.9786 16.5369C21.0169 16.1984 19.8141 16.4958 19.0927 17.029C19.068 16.9296 18.9798 16.8556 18.8749 16.8556H16.6249C16.5007 16.8556 16.3999 16.9592 16.3999 17.0868V24.0243C16.3999 24.152 16.5007 24.2556 16.6249 24.2556H18.8749C18.9991 24.2556 19.0999 24.152 19.0999 24.0243V19.0386C19.4635 18.7167 19.932 18.614 20.3154 18.7814C20.6871 18.9429 20.8999 19.3369 20.8999 19.8618V24.0243C20.8999 24.152 21.0007 24.2556 21.1249 24.2556H23.3749C23.4991 24.2556 23.5999 24.152 23.5999 24.0243V19.3961C23.5743 17.4957 22.7044 16.7922 21.9786 16.5369Z" fill="white"/>
</svg>
