<svg width="101" height="101" viewBox="0 0 101 101" fill="none" xmlns="http://www.w3.org/2000/svg">
<g filter="url(#filter0_d_26_314)">
<rect x="40.3433" y="36.4058" width="20" height="20" rx="4" fill="#020917"/>
<rect x="40.8433" y="36.9058" width="19" height="19" rx="3.5" stroke="#051937"/>
</g>
<path d="M61.8049 44.9496L62.4537 46.0634C62.5996 46.2689 62.7576 46.4509 62.9437 46.6203C63.4894 47.1128 63.998 47.6385 64.4662 48.1938C65.5655 49.5131 66.3069 50.9783 66.8365 52.5629C67.154 53.5309 67.3265 54.5239 67.3394 55.528C67.3926 58.5298 66.2667 61.1074 63.9967 63.2496C63.6274 63.5893 63.2285 63.901 62.8039 64.1815C62.579 64.1815 62.4727 64.0239 62.38 63.8787C62.2112 63.6096 62.0989 63.3141 62.0488 63.0073C61.969 62.6441 61.9166 62.2809 61.9424 61.906V61.7365C61.9242 61.7004 61.7259 45.035 61.8049 44.9496Z" fill="#599636"/>
<path d="M61.805 44.9128C61.7784 44.8642 61.7518 44.901 61.7252 44.9246C61.7382 45.1676 61.6455 45.3843 61.5004 45.5912C61.3408 45.7968 61.1296 45.9544 60.9177 46.1238C59.7401 47.0557 58.8133 48.1813 58.071 49.4402C57.0834 51.1346 56.5744 52.9504 56.4301 54.8621C56.364 55.5516 56.6686 57.9848 56.9064 58.6868C57.5552 60.5505 58.7206 62.1122 60.2301 63.4677C60.6009 63.7941 60.9974 64.0968 61.4077 64.3878C61.527 64.3878 61.5399 64.2905 61.5672 64.2183C61.6195 64.0638 61.6594 63.906 61.6865 63.7461L61.9524 61.931L61.805 44.9128Z" fill="#6CAC48"/>
<path d="M62.4538 64.9189C62.4804 64.6412 62.6263 64.4107 62.7851 64.1808C62.6255 64.1204 62.507 64.0003 62.4143 63.8663C62.3344 63.7394 62.2683 63.6056 62.2168 63.467C62.0314 62.9587 61.9919 62.4254 61.9388 61.906V61.5914C61.8727 61.64 61.859 62.0511 61.859 62.1122C61.8203 62.6612 61.7406 63.2071 61.6204 63.7461C61.5809 63.9642 61.5543 64.1815 61.4077 64.3752C61.4077 64.3995 61.4077 64.4238 61.4206 64.46C61.6592 65.1016 61.7245 65.755 61.7648 66.4209V66.6639C61.7648 66.9542 61.7519 66.8931 62.0155 66.9903C62.1218 67.0264 62.2404 67.0389 62.3467 67.1111C62.4265 67.1111 62.4394 67.0507 62.4394 67.0021L62.3999 66.6028V65.489C62.387 65.2946 62.4265 65.1016 62.4531 64.9196L62.4538 64.9189Z" fill="#C2BFBF"/>
<defs>
<filter id="filter0_d_26_314" x="0.343262" y="0.405762" width="100" height="100" filterUnits="userSpaceOnUse" color-interpolation-filters="sRGB">
<feFlood flood-opacity="0" result="BackgroundImageFix"/>
<feColorMatrix in="SourceAlpha" type="matrix" values="0 0 0 0 0 0 0 0 0 0 0 0 0 0 0 0 0 0 127 0" result="hardAlpha"/>
<feOffset dy="4"/>
<feGaussianBlur stdDeviation="20"/>
<feComposite in2="hardAlpha" operator="out"/>
<feColorMatrix type="matrix" values="0 0 0 0 0.0367917 0 0 0 0 0.0348958 0 0 0 0 0.0484375 0 0 0 0.1 0"/>
<feBlend mode="normal" in2="BackgroundImageFix" result="effect1_dropShadow_26_314"/>
<feBlend mode="normal" in="SourceGraphic" in2="effect1_dropShadow_26_314" result="shape"/>
</filter>
</defs>
</svg>
