<svg width="31" height="31" viewBox="0 0 31 31" fill="none" xmlns="http://www.w3.org/2000/svg">
<path d="M2.58333 12.9165C2.58333 10.7637 3.06232 8.78852 4.02031 6.99095C4.97829 5.19338 6.26458 3.70258 7.87916 2.51855L9.39687 4.58522C8.1052 5.53244 7.07725 6.72724 6.31302 8.1696C5.54878 9.61196 5.16666 11.1942 5.16666 12.9165H2.58333ZM25.8333 12.9165C25.8333 11.1942 25.4512 9.61196 24.687 8.1696C23.9227 6.72724 22.8948 5.53244 21.6031 4.58522L23.1208 2.51855C24.7354 3.70258 26.0217 5.19338 26.9797 6.99095C27.9377 8.78852 28.4167 10.7637 28.4167 12.9165H25.8333ZM5.16666 24.5415V21.9581H7.75V12.9165C7.75 11.1297 8.28819 9.54199 9.36458 8.15345C10.441 6.76491 11.8403 5.85536 13.5625 5.4248V4.52064C13.5625 3.98244 13.7509 3.52498 14.1276 3.14824C14.5043 2.77151 14.9618 2.58314 15.5 2.58314C16.0382 2.58314 16.4957 2.77151 16.8724 3.14824C17.2491 3.52498 17.4375 3.98244 17.4375 4.52064V5.4248C19.1597 5.85536 20.559 6.76491 21.6354 8.15345C22.7118 9.54199 23.25 11.1297 23.25 12.9165V21.9581H25.8333V24.5415H5.16666ZM15.5 28.4165C14.7896 28.4165 14.1814 28.1635 13.6755 27.6576C13.1696 27.1517 12.9167 26.5436 12.9167 25.8331H18.0833C18.0833 26.5436 17.8304 27.1517 17.3245 27.6576C16.8186 28.1635 16.2104 28.4165 15.5 28.4165ZM10.3333 21.9581H20.6667V12.9165C20.6667 11.4956 20.1608 10.2793 19.149 9.26751C18.1371 8.25571 16.9208 7.7498 15.5 7.7498C14.0792 7.7498 12.8628 8.25571 11.851 9.26751C10.8392 10.2793 10.3333 11.4956 10.3333 12.9165V21.9581Z" fill="#FCA311"/>
</svg>
