<svg width="38" height="42" viewBox="0 0 38 42" fill="none" xmlns="http://www.w3.org/2000/svg">
<g clip-path="url(#clip0_26_256)">
<path d="M7.42065 3.38526e-06H31.0829C31.9351 -0.000941022 32.7792 0.195724 33.5667 0.578742C34.3542 0.961761 35.0698 1.52361 35.6724 2.23215C36.275 2.94068 36.7529 3.78198 37.0787 4.7079C37.4044 5.63383 37.5717 6.62619 37.5709 7.62821V34.3718C37.5717 35.3738 37.4044 36.3662 37.0787 37.2921C36.7529 38.218 36.275 39.0593 35.6724 39.7679C35.0698 40.4764 34.3542 41.0382 33.5667 41.4213C32.7792 41.8043 31.9351 42.0009 31.0829 42H7.42065C6.56841 42.0009 5.72437 41.8043 4.93684 41.4213C4.14931 41.0382 3.43376 40.4764 2.83113 39.7679C2.2285 39.0593 1.75063 38.218 1.42486 37.2921C1.09909 36.3662 0.931817 35.3738 0.93262 34.3718V7.62821C0.931817 6.62619 1.09909 5.63383 1.42486 4.7079C1.75063 3.78198 2.2285 2.94068 2.83113 2.23215C3.43376 1.52361 4.14931 0.961761 4.93684 0.578742C5.72437 0.195724 6.56841 -0.000941022 7.42065 3.38526e-06Z" fill="#777BB3"/>
<path d="M9.57561 23.4539C10.4665 23.4539 11.1315 23.2655 11.5523 22.8943C11.9686 22.5269 12.2561 21.8903 12.4068 21.0023C12.5473 20.1723 12.4938 19.5927 12.2478 19.28C11.9962 18.9605 11.4523 18.7985 10.6313 18.7985H9.2076L8.41835 23.4539H9.57561ZM4.91921 29.1884C4.85312 29.1884 4.79036 29.1546 4.74835 29.096C4.70626 29.0375 4.6892 28.9605 4.70183 28.8861L6.79349 16.5493C6.81372 16.43 6.90491 16.3439 7.01094 16.3439H11.519C12.9358 16.3439 13.9903 16.7849 14.6532 17.6547C15.3196 18.5292 15.5253 19.7515 15.2648 21.2877C15.1587 21.9135 14.9764 22.4948 14.7227 23.0152C14.4688 23.5361 14.1332 24.0182 13.7251 24.4482C13.2366 24.9723 12.6837 25.3523 12.0833 25.5759C11.4923 25.7966 10.7334 25.9085 9.82769 25.9085H8.00228L7.48099 28.9829C7.46076 29.1022 7.36964 29.1884 7.26361 29.1884H4.91921Z" fill="black"/>
<path d="M9.39029 19.0524H10.6313C11.6223 19.0524 11.9665 19.3017 12.0835 19.4502C12.2776 19.6969 12.3142 20.2169 12.1895 20.9541C12.0493 21.7794 11.7896 22.3645 11.4173 22.6931C11.0361 23.0294 10.4165 23.1999 9.5757 23.1999H8.68714L9.39029 19.0524ZM11.5191 16.0899H7.01096C6.7989 16.0899 6.61659 16.2623 6.57613 16.5009L4.48447 28.8376C4.45921 28.9865 4.49333 29.1405 4.57743 29.2575C4.6616 29.3746 4.78698 29.4423 4.9193 29.4423H7.26363C7.47576 29.4423 7.65807 29.27 7.69853 29.0314L8.18497 26.1624H9.82778C10.7568 26.1624 11.5389 26.0463 12.1521 25.8173C12.7827 25.5824 13.363 25.1842 13.8765 24.6337C14.3012 24.1858 14.6511 23.683 14.9161 23.1391C15.1813 22.5951 15.3718 21.9885 15.4823 21.3361C15.7566 19.7191 15.5338 18.4242 14.8201 17.4877C14.1133 16.5602 13.0026 16.0899 11.5191 16.0899ZM8.14968 23.7078H9.5757C10.5209 23.7078 11.2249 23.5037 11.6875 23.0955C12.1502 22.6872 12.4622 22.0057 12.6244 21.0508C12.7795 20.1339 12.7088 19.4869 12.4124 19.11C12.1156 18.7331 11.522 18.5446 10.6313 18.5446H9.02509L8.14968 23.7078ZM11.5191 16.5978C12.8753 16.5978 13.8646 17.0058 14.4865 17.8218C15.1083 18.6378 15.2955 19.7769 15.0474 21.2393C14.9453 21.8417 14.7726 22.3924 14.5294 22.8914C14.286 23.3907 13.9681 23.8473 13.5753 24.2613C13.1072 24.7634 12.5872 25.1213 12.0149 25.3344C11.4427 25.5482 10.7138 25.6546 9.82778 25.6546H7.8197L7.26363 28.9345H4.9193L7.01096 16.5978H11.5191Z" fill="white"/>
<path d="M20.6401 25.9085C20.574 25.9085 20.5113 25.8747 20.4692 25.8161C20.4271 25.7576 20.41 25.6806 20.4227 25.6062L21.3479 20.1476C21.4359 19.6285 21.4142 19.2559 21.2869 19.0985C21.2089 19.0023 20.9747 18.8408 20.2821 18.8408H18.6059L17.4426 25.703C17.4224 25.8223 17.3312 25.9085 17.2251 25.9085H14.8993C14.8331 25.9085 14.7704 25.8747 14.7283 25.8161C14.6862 25.7576 14.6692 25.6806 14.6818 25.6062L16.7735 13.2694C16.7937 13.1501 16.8849 13.064 16.9909 13.064H19.3168C19.383 13.064 19.4456 13.0978 19.4877 13.1563C19.5298 13.2149 19.5469 13.2918 19.5342 13.3663L19.0295 16.3439H20.8328C22.2065 16.3439 23.138 16.6215 23.6806 17.1927C24.2336 17.7754 24.4062 18.707 24.1935 19.9621L23.2204 25.703C23.2001 25.8223 23.109 25.9085 23.0029 25.9085H20.6401Z" fill="black"/>
<path d="M19.3169 12.81H16.991C16.7789 12.81 16.5966 12.9823 16.5561 13.2209L14.4644 25.5577C14.4392 25.7066 14.4733 25.8605 14.5575 25.9776C14.6417 26.0946 14.767 26.1624 14.8993 26.1624H17.2252C17.4373 26.1624 17.6197 25.99 17.6601 25.7514L18.7886 19.0947H20.2822C20.9736 19.0947 21.1187 19.264 21.1245 19.2712C21.1664 19.323 21.2216 19.5625 21.1306 20.0991L20.2053 25.5577C20.18 25.7066 20.2142 25.8605 20.2983 25.9776C20.3825 26.0946 20.5079 26.1624 20.6402 26.1624H23.003C23.2151 26.1624 23.3974 25.99 23.4379 25.7514L24.411 20.0105C24.6394 18.6629 24.444 17.652 23.8306 17.0057C23.2452 16.3894 22.2646 16.0899 20.8328 16.0899H19.2982L19.7518 13.4147C19.777 13.2658 19.7429 13.1118 19.6588 12.9948C19.5746 12.8778 19.4492 12.81 19.3169 12.81ZM19.3169 13.3178L18.7608 16.5977H20.8328C22.1366 16.5977 23.0359 16.8586 23.5308 17.3797C24.0257 17.9011 24.174 18.7459 23.9762 19.9137L23.003 25.6545H20.6402L21.5655 20.1961C21.6707 19.5751 21.6321 19.1516 21.4492 18.9257C21.2663 18.6999 20.8773 18.5868 20.2822 18.5868H18.4233L17.2252 25.6545H14.8993L16.991 13.3178H19.3169Z" fill="white"/>
<path d="M27.8737 23.4539C28.7645 23.4539 29.4296 23.2655 29.8504 22.8943C30.2667 22.5269 30.5542 21.8903 30.705 21.0023C30.8455 20.1723 30.792 19.5927 30.5459 19.28C30.2943 18.9605 29.7504 18.7985 28.9293 18.7985H27.5057L26.7164 23.4539H27.8737ZM23.2174 29.1884C23.1513 29.1884 23.0885 29.1546 23.0465 29.096C23.0044 29.0375 22.9873 28.9605 22.9999 28.8861L25.0916 16.5493C25.1119 16.43 25.203 16.3439 25.3091 16.3439H29.8171C31.234 16.3439 32.2884 16.7849 32.9513 17.6547C33.6177 18.5291 33.8234 19.7514 33.5629 21.2877C33.4568 21.9135 33.2744 22.4948 33.0208 23.0152C32.7669 23.5361 32.4313 24.0182 32.0232 24.4482C31.5347 24.9723 30.9818 25.3523 30.3814 25.5759C29.7904 25.7966 29.0315 25.9085 28.1258 25.9085H26.3003L25.7792 28.9829C25.7589 29.1022 25.6678 29.1884 25.5617 29.1884H23.2174Z" fill="black"/>
<path d="M27.6883 19.0524H28.9294C29.9203 19.0524 30.2646 19.3017 30.3815 19.4502C30.5756 19.6969 30.6123 20.2169 30.4875 20.954C30.3473 21.7794 30.0875 22.3645 29.7153 22.6931C29.3341 23.0294 28.7145 23.1999 27.8737 23.1999H26.9852L27.6883 19.0524ZM29.8171 16.0899H25.3091C25.097 16.0899 24.9147 16.2623 24.8742 16.5009L22.7826 28.8376C22.7573 28.9865 22.7914 29.1405 22.8755 29.2575C22.9597 29.3746 23.0851 29.4423 23.2174 29.4423H25.5617C25.7738 29.4423 25.9562 29.27 25.9966 29.0314L26.483 26.1624H28.1258C29.0548 26.1624 29.8369 26.0463 30.4501 25.8173C31.0808 25.5824 31.6611 25.1841 32.1747 24.6335C32.5994 24.1857 32.9491 23.683 33.2141 23.1391C33.4793 22.5951 33.6698 21.9885 33.7803 21.3361C34.0546 19.719 33.8318 18.4241 33.1181 17.4876C32.4113 16.5602 31.3007 16.0899 29.8171 16.0899ZM26.4478 23.7078H27.8737C28.8189 23.7078 29.5229 23.5037 29.9855 23.0955C30.4483 22.6872 30.7602 22.0057 30.9224 21.0508C31.0776 20.1339 31.0069 19.4869 30.7104 19.11C30.4136 18.7331 29.82 18.5446 28.9294 18.5446H27.3231L26.4478 23.7078ZM29.8171 16.5978C31.1733 16.5978 32.1626 17.0058 32.7845 17.8218C33.4063 18.6378 33.5935 19.7769 33.3454 21.2393C33.2433 21.8417 33.0706 22.3924 32.8275 22.8914C32.584 23.3907 32.2662 23.8473 31.8733 24.2613C31.4052 24.7634 30.8852 25.1213 30.3129 25.3344C29.7407 25.5482 29.0118 25.6546 28.1258 25.6546H26.1177L25.5617 28.9345H23.2174L25.3091 16.5978H29.8171Z" fill="white"/>
</g>
<defs>
<clipPath id="clip0_26_256">
<rect width="36.6383" height="42" fill="white" transform="translate(0.932617)"/>
</clipPath>
</defs>
</svg>
