<svg width="48" height="45" viewBox="0 0 48 45" fill="none" xmlns="http://www.w3.org/2000/svg">
<path d="M9.42299 3.5H9.42342L37.6866 3.5L37.6871 3.5C38.6452 3.49918 39.5933 3.67111 40.4766 4.00509C41.3599 4.33906 42.1597 4.82793 42.8312 5.44177C43.5027 6.05552 44.0325 6.78182 44.3928 7.57778C44.7529 8.37359 44.9371 9.22469 44.9362 10.0828V10.0833V34.9167V34.9172C44.9371 35.7753 44.7529 36.6264 44.3928 37.4222C44.0325 38.2182 43.5027 38.9445 42.8312 39.5582C42.1597 40.1721 41.3599 40.6609 40.4766 40.9949C39.5933 41.3289 38.6452 41.5008 37.6871 41.5H37.6866H9.42342H9.42299C8.46483 41.5008 7.51679 41.3289 6.63348 40.9949C5.7502 40.6609 4.9504 40.1721 4.27883 39.5582C3.60735 38.9445 3.07753 38.2182 2.7173 37.4222C2.35714 36.6264 2.17295 35.7753 2.17383 34.9172V34.9167L2.17383 10.0833L2.17383 10.0828C2.17295 9.22469 2.35714 8.37359 2.7173 7.57778C3.07753 6.78182 3.60735 6.05552 4.27883 5.44177C4.9504 4.82793 5.7502 4.33906 6.63348 4.00509C7.51679 3.67111 8.46483 3.49918 9.42299 3.5ZM9.42342 3H37.6866L1.67383 10.0833C1.67287 9.15289 1.87267 8.23141 2.26178 7.37162C2.65089 6.51184 3.22169 5.73063 3.94149 5.07271C4.6613 4.41478 5.51599 3.89306 6.45665 3.5374C7.39731 3.18174 8.40546 2.99913 9.42342 3Z" fill="#000B1D" stroke="#051937"/>
<path d="M37.6573 11.8955L31.4033 9.21202C30.6794 8.90141 29.8143 9.03243 29.2462 9.53872L8.77295 26.1741C8.22227 26.6215 8.22291 27.3942 8.77432 27.8409L10.4466 29.1957C10.8974 29.561 11.5764 29.5879 12.0617 29.2597L36.7162 12.5917C37.5434 12.0325 38.7314 12.5582 38.7314 13.4834V13.4187C38.7314 12.7693 38.3139 12.1773 37.6573 11.8955Z" fill="#0065A9"/>
<g filter="url(#filter0_d_26_282)">
<path d="M37.6573 33.1045L31.4033 35.788C30.6794 36.0986 29.8143 35.9675 29.2462 35.4613L8.77295 18.8259C8.22227 18.3784 8.22291 17.6058 8.77432 17.1591L10.4466 15.8042C10.8974 15.439 11.5764 15.4121 12.0617 15.7402L36.7162 32.4083C37.5434 32.9675 38.7314 32.4418 38.7314 31.5166V31.5813C38.7314 32.2307 38.3139 32.8227 37.6573 33.1045Z" fill="#007ACC"/>
</g>
<g filter="url(#filter1_d_26_282)">
<path d="M31.4035 35.7885C30.6794 36.0989 29.8143 35.9676 29.2461 35.4612C29.9461 36.0851 31.1431 35.6433 31.1431 34.761V10.2391C31.1431 9.35683 29.9461 8.91497 29.2461 9.53884C29.8143 9.03251 30.6794 8.9013 31.4035 9.21164L37.6564 11.8914C38.3134 12.173 38.7313 12.7653 38.7313 13.415V31.5852C38.7313 32.2349 38.3134 32.8272 37.6564 33.1088L31.4035 35.7885Z" fill="#1F9CF0"/>
</g>
<g style="mix-blend-mode:overlay" opacity="0.25">
<path style="mix-blend-mode:overlay" fill-rule="evenodd" clip-rule="evenodd" d="M29.8839 35.8402C30.362 36.0061 30.9071 35.9955 31.3896 35.7886L37.6387 33.1089C38.2953 32.8273 38.7129 32.235 38.7129 31.5853V13.4151C38.7129 12.7654 38.2953 12.1731 37.6387 11.8916L31.3896 9.21176C30.7564 8.94021 30.0153 9.00673 29.4595 9.3668C29.3801 9.41824 29.3045 9.47567 29.2335 9.53896L17.2704 19.2654L12.0595 15.7404C11.5744 15.4122 10.8959 15.4391 10.4454 15.8043L8.77407 17.1592C8.22299 17.6059 8.22236 18.3786 8.7727 18.826L13.2918 22.5002L8.7727 26.1743C8.22236 26.6218 8.22299 27.3944 8.77407 27.8411L10.4454 29.196C10.8959 29.5612 11.5744 29.5881 12.0595 29.26L17.2704 25.7349L29.2335 35.4614C29.4227 35.6301 29.645 35.7572 29.8839 35.8402ZM31.1294 16.3596L22.0521 22.5002L31.1294 28.6407V16.3596Z" fill="url(#paint0_linear_26_282)"/>
</g>
<defs>
<filter id="filter0_d_26_282" x="0.0270119" y="7.17777" width="47.0378" height="37.1104" filterUnits="userSpaceOnUse" color-interpolation-filters="sRGB">
<feFlood flood-opacity="0" result="BackgroundImageFix"/>
<feColorMatrix in="SourceAlpha" type="matrix" values="0 0 0 0 0 0 0 0 0 0 0 0 0 0 0 0 0 0 127 0" result="hardAlpha"/>
<feOffset/>
<feGaussianBlur stdDeviation="4.16667"/>
<feColorMatrix type="matrix" values="0 0 0 0 0 0 0 0 0 0 0 0 0 0 0 0 0 0 0.25 0"/>
<feBlend mode="overlay" in2="BackgroundImageFix" result="effect1_dropShadow_26_282"/>
<feBlend mode="normal" in="SourceGraphic" in2="effect1_dropShadow_26_282" result="shape"/>
</filter>
<filter id="filter1_d_26_282" x="20.9128" y="0.711704" width="26.1518" height="43.5767" filterUnits="userSpaceOnUse" color-interpolation-filters="sRGB">
<feFlood flood-opacity="0" result="BackgroundImageFix"/>
<feColorMatrix in="SourceAlpha" type="matrix" values="0 0 0 0 0 0 0 0 0 0 0 0 0 0 0 0 0 0 127 0" result="hardAlpha"/>
<feOffset/>
<feGaussianBlur stdDeviation="4.16667"/>
<feColorMatrix type="matrix" values="0 0 0 0 0 0 0 0 0 0 0 0 0 0 0 0 0 0 0.25 0"/>
<feBlend mode="overlay" in2="BackgroundImageFix" result="effect1_dropShadow_26_282"/>
<feBlend mode="normal" in="SourceGraphic" in2="effect1_dropShadow_26_282" result="shape"/>
</filter>
<linearGradient id="paint0_linear_26_282" x1="23.5366" y1="9.04517" x2="23.5366" y2="35.9552" gradientUnits="userSpaceOnUse">
<stop stop-color="white"/>
<stop offset="1" stop-color="white" stop-opacity="0"/>
</linearGradient>
</defs>
</svg>
