<svg width="36" height="37" viewBox="0 0 36 37" fill="none" xmlns="http://www.w3.org/2000/svg">
<path opacity="0.25" d="M35 18.5C35 28.191 27.3632 36 18 36C8.63681 36 1 28.191 1 18.5C1 8.80901 8.63681 1 18 1C27.3632 1 35 8.80901 35 18.5Z" stroke="white" stroke-width="2"/>
<path d="M23.4024 15.985C23.4112 16.1092 23.4112 16.2333 23.4112 16.3583C23.4112 20.1447 20.6064 24.5082 15.4808 24.5082C13.9016 24.5082 12.4344 24.0379 11.2 23.2222C11.4248 23.2485 11.6408 23.2568 11.8736 23.2568C13.1768 23.2568 14.3752 22.8045 15.3336 22.0333C14.108 22.007 13.0816 21.1815 12.728 20.046C12.9 20.0723 13.0728 20.0904 13.2528 20.0904C13.504 20.0904 13.7544 20.055 13.9872 19.9934C12.7104 19.727 11.752 18.5742 11.752 17.1822C11.752 17.1731 11.752 17.1551 11.752 17.1468C12.1232 17.359 12.5544 17.4922 13.012 17.5103C12.2616 16.9955 11.7696 16.1174 11.7696 15.125C11.7696 14.593 11.908 14.1046 12.1496 13.6787C13.5216 15.4177 15.584 16.5532 17.8968 16.6765C17.8528 16.4636 17.8272 16.2416 17.8272 16.0196C17.8272 14.4417 19.0704 13.1558 20.6144 13.1558C21.4168 13.1558 22.1416 13.5011 22.6512 14.0602C23.2808 13.9361 23.884 13.6968 24.42 13.3687C24.2128 14.0339 23.7728 14.593 23.1944 14.9466C23.756 14.8849 24.2992 14.7254 24.8 14.5034C24.42 15.0707 23.9456 15.5772 23.4024 15.985Z" fill="white"/>
</svg>
